<svg xmlns="http://www.w3.org/2000/svg" width="512" height="512" version="1.1" viewBox="0 0 512 512"><g fill="none" fill-rule="evenodd"><g stroke="currentColor" stroke-width="32" transform="translate(32 64)"><rect width="448" height="320" rx="32"/><polygon stroke-linecap="round" points="272 384 264 320 184 320 176 384"/><line x1="336" x2="112" y1="384" y2="384" stroke-linecap="round"/><path fill="currentColor" stroke-width="18.789" d="m187.82 261.69h-20.183c-5.1884 0-9.3944-4.206-9.3944-9.3944v-187.89c0-5.1884 4.206-9.3944 9.3944-9.3944h20.183c5.1884 0 9.3944 4.206 9.3944 9.3944v187.89c0 5.1884-4.206 9.3944-9.3944 9.3944zm92.549 0h-20.183c-5.1884 0-9.3944-4.206-9.3944-9.3944v-187.89c0-5.1884 4.206-9.3944 9.3944-9.3944h20.183c5.1884 0 9.3944 4.206 9.3944 9.3944v187.89c0 5.1884-4.206 9.3944-9.3944 9.3944z"/></g></g></svg>