<svg xmlns="http://www.w3.org/2000/svg" xmlns:xlink="http://www.w3.org/1999/xlink" width="512" height="512" version="1.1" viewBox="0 0 512 512"><g fill="none" fill-rule="evenodd" stroke="none" stroke-linecap="round" stroke-width="1"><path stroke="currentColor" stroke-linejoin="round" stroke-width="32" d="M448,341.339707 L448,170.579707 C447.98613,159.20656 441.936771,148.695371 432.11,142.969707 L280.11,54.5097067 C265.201263,45.8300978 246.778737,45.8300978 231.87,54.5097067 L79.89,142.969707 C70.0632289,148.695371 64.0138705,159.20656 64,170.579707 L64,341.339707 C64.0067627,352.719997 70.0570661,363.240443 79.89,368.969707 L231.89,457.429707 C246.802122,466.096765 265.217878,466.096765 280.13,457.429707 L432.13,368.969707 C441.955241,363.235397 448,352.715896 448,341.339707 Z"/><line id="Path" x1="69" x2="256" y1="153.96" y2="263.96" stroke="currentColor" stroke-linejoin="round" stroke-width="32"/><line id="Path" x1="256" x2="318" y1="263.96" y2="226" stroke="currentColor" stroke-linejoin="round" stroke-width="32"/><line id="Path" x1="382.5" x2="443" y1="190.5" y2="153.96" stroke="currentColor" stroke-linejoin="round" stroke-width="32"/><line id="Path" x1="163" x2="225" y1="208.96" y2="171" stroke="currentColor" stroke-linejoin="round" stroke-width="32"/><line id="Path" x1="289.5" x2="350" y1="135.5" y2="98.96" stroke="currentColor" stroke-linejoin="round" stroke-width="32"/><line id="Path" x1="256" x2="256" y1="463.96" y2="263.96" stroke="currentColor" stroke-linejoin="round" stroke-width="32"/><line id="Path" x1="131" x2="318" y1="115.96" y2="225.96" stroke="currentColor" stroke-linejoin="round" stroke-width="32"/><line id="Path" x1="191" x2="378" y1="80.96" y2="190.96" stroke="currentColor" stroke-linejoin="round" stroke-width="32"/><line id="Path-3" x1="318" x2="317.992" y1="227" y2="345.768" stroke="currentColor" stroke-width="32"/><line id="Path-4" x1="382.877" x2="382.877" y1="194.96" y2="308.645" stroke="currentColor" stroke-width="32"/><line id="Path-5" x1="318" x2="382.877" y1="346" y2="308.645" stroke="currentColor" stroke-width="32"/></g></svg>