<svg width="0" height="0" class="hidden"><symbol xmlns="http://www.w3.org/2000/svg" id="build-status-static" stroke="currentColor" viewBox="0 0 38 38"><g fill="none" fill-rule="evenodd"><g stroke-width="3" transform="translate(1 1)"><circle cx="18" cy="18" r="16" stroke-opacity="1"/></g></g></symbol><symbol xmlns="http://www.w3.org/2000/svg" id="build-status-in-progress" stroke="currentColor" viewBox="0 0 40 40"><g fill="none" fill-rule="evenodd"><g stroke-width="3" transform="translate(1 1)"><circle cx="19" cy="19" r="18" stroke-opacity=".4"/><path d="M37 19c0-9.94-8.06-18-18-18"/></g></g></symbol><symbol xmlns="http://www.w3.org/2000/svg" id="last-failed" viewBox="-6 -6 36 36"><path fill="currentColor" d="M7.09376 5.34704L7.10878 5.36181L12 10.253L16.8912 5.36181C17.3736 4.8794 18.1558 4.8794 18.6382 5.36181C19.1156 5.83925 19.1206 6.61027 18.653 7.09376L18.6382 7.10878L13.747 12L18.6382 16.8912C19.1206 17.3736 19.1206 18.1558 18.6382 18.6382C18.1608 19.1156 17.3897 19.1206 16.9062 18.653L16.8912 18.6382L12 13.747L7.10878 18.6382C6.62637 19.1206 5.84422 19.1206 5.36181 18.6382C4.88437 18.1608 4.87945 17.3897 5.34704 16.9062L5.36181 16.8912L10.253 12L5.36181 7.10878C4.8794 6.62637 4.8794 5.84422 5.36181 5.36181C5.83428 4.88934 6.59424 4.8796 7.07856 5.33258L7.09376 5.34704Z"/></symbol><symbol xmlns="http://www.w3.org/2000/svg" id="last-successful" viewBox="-9 -9 42 42"><title>last-build-successful</title><path fill="transparent" stroke="currentColor" stroke-linecap="round" stroke-linejoin="round" stroke-width="3" d="M19.5 6L9 18L4.5 13.5"/></symbol><svg xmlns="http://www.w3.org/2000/svg" id="last-unstable" viewBox="-6 -6 36 36"><path stroke="currentColor" stroke-linecap="round" stroke-linejoin="round" stroke-width="2" d="M12 3.75C11.5941 3.75 11.2228 4.095 11.25 4.5L11.625 14.625C11.625 14.7245 11.6645 14.8198 11.7348 14.8902C11.8052 14.9605 11.9005 15 12 15C12.0995 15 12.1948 14.9605 12.2652 14.8902C12.3355 14.8198 12.375 14.7245 12.375 14.625L12.75 4.5C12.7772 4.095 12.4059 3.75 12 3.75Z"/><path fill="currentColor" stroke="currentColor" stroke-linecap="round" stroke-linejoin="round" stroke-width="2" d="M12 20.25C12.4142 20.25 12.75 19.9142 12.75 19.5C12.75 19.0858 12.4142 18.75 12 18.75C11.5858 18.75 11.25 19.0858 11.25 19.5C11.25 19.9142 11.5858 20.25 12 20.25Z"/></svg><symbol xmlns="http://www.w3.org/2000/svg" id="last-aborted" viewBox="0 0 24 24"><g fill="none" fill-rule="evenodd" stroke="currentColor" stroke-width="2"><path d="M19.3961792,4.5 L4.5,19.3961792 L19.3961792,4.5 Z"/><path d="M19.3961792,4.5 L4.5,19.3961792 L19.3961792,4.5 Z" transform="translate(11.948090, 11.948090) scale(-1, 1) translate(-11.948090, -11.948090)"/></g></symbol><symbol xmlns="http://www.w3.org/2000/svg" id="last-disabled" viewBox="0 0 28 28"><g fill="none" fill-rule="evenodd" stroke="currentColor" stroke-width="2"><path d="M18.4085057,9.72715652 L9.75138867,18.3842736 L18.4085057,9.72715652 Z" transform="translate(14.079947, 14.055715) rotate(-5.000000) translate(-14.079947, -14.055715)"/></g></symbol><symbol xmlns="http://www.w3.org/2000/svg" id="never-built" viewBox="0 0 24 24"><g fill="none" fill-rule="evenodd" stroke="none" stroke-width="1"><circle id="Oval-Copy-10" cx="7.357" cy="12.037" r="1.5" fill="currentColor"/><circle id="Oval-Copy-11" cx="16.643" cy="12.037" r="1.5" fill="currentColor"/><circle id="Oval-Copy-12" cx="12" cy="12.037" r="1.5" fill="currentColor"/></g></symbol></svg>